<svg xmlns="http://www.w3.org/2000/svg" xmlns:xlink="http://www.w3.org/1999/xlink" width="335.374" height="293.587" viewBox="0 0 335.374 293.587">
  <defs>
    <linearGradient id="linear-gradient" x1="0.823" y1="0.007" x2="1.601" y2="1.043" gradientUnits="objectBoundingBox">
      <stop offset="0" stop-color="gray" stop-opacity="0.251"/>
      <stop offset="0.54" stop-color="gray" stop-opacity="0.122"/>
      <stop offset="1" stop-color="gray" stop-opacity="0.102"/>
    </linearGradient>
    <linearGradient id="linear-gradient-2" x1="1" x2="0" y2="1" gradientUnits="objectBoundingBox">
      <stop offset="0" stop-color="#44a6ff"/>
      <stop offset="1" stop-color="#0081f6"/>
    </linearGradient>
    <filter id="Path_1449" x="49.879" y="1.084" width="157.667" height="259.757" filterUnits="userSpaceOnUse">
      <feOffset dy="10" input="SourceAlpha"/>
      <feGaussianBlur stdDeviation="5" result="blur"/>
      <feFlood flood-color="#44a6ff" flood-opacity="0.2"/>
      <feComposite operator="in" in2="blur"/>
      <feComposite in="SourceGraphic"/>
    </filter>
    <linearGradient id="linear-gradient-3" x1="0.824" y1="-0.231" x2="1.599" y2="0.806" xlink:href="#linear-gradient"/>
    <linearGradient id="linear-gradient-4" x1="0.5" y1="0.217" x2="0.5" y2="1.217" xlink:href="#linear-gradient"/>
    <filter id="Rectangle_117" x="179.389" y="119.642" width="92.318" height="34.969" filterUnits="userSpaceOnUse">
      <feOffset dy="10" input="SourceAlpha"/>
      <feGaussianBlur stdDeviation="5" result="blur-2"/>
      <feFlood flood-color="#44a6ff" flood-opacity="0.2"/>
      <feComposite operator="in" in2="blur-2"/>
      <feComposite in="SourceGraphic"/>
    </filter>
    <filter id="Rectangle_118" x="179.389" y="129.583" width="92.318" height="34.969" filterUnits="userSpaceOnUse">
      <feOffset dy="10" input="SourceAlpha"/>
      <feGaussianBlur stdDeviation="5" result="blur-3"/>
      <feFlood flood-color="#44a6ff" flood-opacity="0.2"/>
      <feComposite operator="in" in2="blur-3"/>
      <feComposite in="SourceGraphic"/>
    </filter>
    <filter id="Rectangle_121" x="196.594" y="72.617" width="57.908" height="38.794" filterUnits="userSpaceOnUse">
      <feOffset dy="10" input="SourceAlpha"/>
      <feGaussianBlur stdDeviation="5" result="blur-4"/>
      <feFlood flood-color="#44a6ff" flood-opacity="0.2"/>
      <feComposite operator="in" in2="blur-4"/>
      <feComposite in="SourceGraphic"/>
    </filter>
    <filter id="Ellipse_15" x="136.736" y="113.22" width="53.539" height="53.651" filterUnits="userSpaceOnUse">
      <feOffset dy="10" input="SourceAlpha"/>
      <feGaussianBlur stdDeviation="5" result="blur-5"/>
      <feFlood flood-color="#44a6ff" flood-opacity="0.2"/>
      <feComposite operator="in" in2="blur-5"/>
      <feComposite in="SourceGraphic"/>
    </filter>
    <linearGradient id="linear-gradient-9" x1="87.867" y1="-301.532" x2="87.867" y2="-300.525" xlink:href="#linear-gradient"/>
    <linearGradient id="linear-gradient-10" x1="0.819" y1="0.109" x2="0.819" y2="1.109" xlink:href="#linear-gradient"/>
    <linearGradient id="linear-gradient-11" x1="1.287" y1="-0.835" x2="1.287" y2="0.165" xlink:href="#linear-gradient"/>
  </defs>
  <g id="illustration" transform="translate(-64.097 -351.9)">
    <g id="app_frame" data-name="app frame" transform="translate(123.737 351.9)">
      <g id="Group_403" data-name="Group 403" transform="translate(0 0)">
        <g id="Group_401" data-name="Group 401" transform="translate(0 0)">
          <path id="Path_1447" data-name="Path 1447" d="M132.331.569,5.214.877A5.225,5.225,0,0,0,0,6.109L.579,240.421a5.225,5.225,0,0,0,5.239,5.211h0l127.116-.309a5.225,5.225,0,0,0,5.211-5.236L137.556,5.776A5.225,5.225,0,0,0,132.331.569Z" transform="translate(0 -0.369)" fill="url(#linear-gradient)"/>
          <path id="Path_1448" data-name="Path 1448" d="M10.1.3,134.374,0a4.786,4.786,0,0,1,4.8,4.775l.567,232.027a4.786,4.786,0,0,1-4.775,4.8l-124.277.3a4.786,4.786,0,0,1-4.8-4.775L5.321,5.1A4.786,4.786,0,0,1,10.1.3Z" transform="translate(-3.454 0)" fill="#fff"/>
          <g transform="matrix(1, 0, 0, 1, -59.64, 0)" filter="url(#Path_1449)">
            <path id="Path_1449-2" data-name="Path 1449" d="M142.2,78.2h0l-.133-55.794a5.085,5.085,0,0,0-5.1-5.071l-24.862.06a10.85,10.85,0,0,1-10.671,9.257l-46.232.112a10.85,10.85,0,0,1-10.717-9.2L20,17.623a5.085,5.085,0,0,0-5.071,5.1l.137,56.265.4,163.053a5.085,5.085,0,0,0,5.106,5.06l116.971-.284a5.085,5.085,0,0,0,5.057-5.085Z" transform="translate(49.95 -11.25)" fill="url(#linear-gradient-2)"/>
          </g>
          <path id="Path_1450" data-name="Path 1450" d="M150.807,25.794l28.42-.427a.7.7,0,0,1,.712.691l.007.46a.7.7,0,0,1-.691.712l-28.42.427a.7.7,0,0,1-.712-.691l-.007-.46A.7.7,0,0,1,150.807,25.794Z" transform="translate(-97.439 -16.466)" fill="#dbdbdb"/>
          <ellipse id="Ellipse_5" data-name="Ellipse 5" cx="1.119" cy="1.119" rx="1.119" ry="1.119" transform="translate(87.721 8.42)" fill="#dbdbdb"/>
          <rect id="Rectangle_104" data-name="Rectangle 104" width="62.318" height="4.969" transform="translate(58.286 36.329)" fill="#e0e0e0"/>
          <rect id="Rectangle_105" data-name="Rectangle 105" width="62.318" height="4.969" transform="translate(58.286 46.267)" fill="#e0e0e0"/>
          <ellipse id="Ellipse_6" data-name="Ellipse 6" cx="11.769" cy="11.826" rx="11.769" ry="11.826" transform="translate(15.633 29.907)" fill="#f5f5f5"/>
          <rect id="Rectangle_106" data-name="Rectangle 106" width="62.318" height="4.969" transform="translate(58.286 74.178)" fill="#e0e0e0"/>
          <rect id="Rectangle_107" data-name="Rectangle 107" width="62.318" height="4.969" transform="translate(58.286 84.116)" fill="#e0e0e0"/>
          <ellipse id="Ellipse_11" data-name="Ellipse 11" cx="11.769" cy="11.826" rx="11.769" ry="11.826" transform="translate(15.633 67.756)" fill="#e0e0e0"/>
          <rect id="Rectangle_108" data-name="Rectangle 108" width="62.318" height="4.969" transform="translate(58.286 112.027)" fill="#e0e0e0"/>
          <rect id="Rectangle_109" data-name="Rectangle 109" width="62.318" height="4.969" transform="translate(58.286 121.964)" fill="#e0e0e0"/>
          <ellipse id="Ellipse_12" data-name="Ellipse 12" cx="11.769" cy="11.826" rx="11.769" ry="11.826" transform="translate(15.633 105.605)" fill="#e0e0e0"/>
          <rect id="Rectangle_110" data-name="Rectangle 110" width="62.318" height="4.969" transform="translate(58.286 149.876)" fill="#e0e0e0"/>
          <rect id="Rectangle_111" data-name="Rectangle 111" width="62.318" height="4.969" transform="translate(58.286 159.813)" fill="#e0e0e0"/>
          <ellipse id="Ellipse_13" data-name="Ellipse 13" cx="11.769" cy="11.826" rx="11.769" ry="11.826" transform="translate(15.633 143.454)" fill="#e0e0e0"/>
          <rect id="Rectangle_112" data-name="Rectangle 112" width="62.318" height="4.969" transform="translate(58.286 187.724)" fill="#e0e0e0"/>
          <rect id="Rectangle_113" data-name="Rectangle 113" width="62.318" height="4.969" transform="translate(58.286 197.662)" fill="#e0e0e0"/>
          <ellipse id="Ellipse_14" data-name="Ellipse 14" cx="11.769" cy="11.826" rx="11.769" ry="11.826" transform="translate(15.633 181.303)" fill="#e0e0e0"/>
        </g>
        <path id="Path_1458" data-name="Path 1458" d="M365.481,84.458l-127.12.309A5.225,5.225,0,0,0,233.15,90l.579,233.164a5.225,5.225,0,0,0,5.239,5.211h0l127.123-.309a5.225,5.225,0,0,0,5.2-5.229l-.579-233.164a5.225,5.225,0,0,0-5.232-5.218Z" transform="translate(-151.336 -54.821)" fill="url(#linear-gradient-3)"/>
        <path id="Path_1459" data-name="Path 1459" d="M243.243,80.924l124.277-.3a4.786,4.786,0,0,1,4.8,4.775l.567,232.027a4.786,4.786,0,0,1-4.775,4.8l-124.277.3a4.786,4.786,0,0,1-4.8-4.775l-.567-232.027A4.786,4.786,0,0,1,243.243,80.924Z" transform="translate(-154.788 -52.33)" fill="#fff"/>
        <path id="_x39_f21819d-df43-48b3-835e-9020276cbed3_1_" d="M375.344,159.18l-.133-56.191a5.085,5.085,0,0,0-5.1-5.071l-24.869.06a10.85,10.85,0,0,1-10.671,9.257l-46.229.112a10.85,10.85,0,0,1-10.717-9.2l-24.49.06a5.085,5.085,0,0,0-5.071,5.1l.137,56.264" transform="translate(-161.02 -63.558)" fill="#fafafa"/>
        <path id="c36a71a1-8927-4a8e-aa0b-340c78108d04_1_" d="M248.46,272.158l.4,163.053a5.085,5.085,0,0,0,5.1,5.071L370.923,440a5.085,5.085,0,0,0,5.071-5.1l-.4-163.523" transform="translate(-161.274 -176.15)" fill="#fafafa"/>
        <rect id="Rectangle_114" data-name="Rectangle 114" width="24.851" height="24.851" transform="translate(98.43 57.738)" fill="#e0e0e0"/>
        <g id="Group_402" data-name="Group 402" transform="translate(68.908 103.233)" opacity="0.5">
          <rect id="Rectangle_115" data-name="Rectangle 115" width="164.095" height="55.819" fill="url(#linear-gradient-4)"/>
        </g>
        <rect id="Rectangle_116" data-name="Rectangle 116" width="160.189" height="51.611" transform="translate(70.862 105.528)" fill="#fff"/>
        <g transform="matrix(1, 0, 0, 1, -59.64, 0)" filter="url(#Rectangle_117)">
          <rect id="Rectangle_117-2" data-name="Rectangle 117" width="62.318" height="4.969" rx="2.484" transform="translate(194.39 124.64)" fill="url(#linear-gradient-2)"/>
        </g>
        <g transform="matrix(1, 0, 0, 1, -59.64, 0)" filter="url(#Rectangle_118)">
          <rect id="Rectangle_118-2" data-name="Rectangle 118" width="62.318" height="4.969" rx="2.484" transform="translate(194.39 134.58)" fill="url(#linear-gradient-2)"/>
        </g>
        <rect id="Rectangle_119" data-name="Rectangle 119" width="62.318" height="4.969" transform="translate(134.748 179.696)" fill="#e0e0e0"/>
        <rect id="Rectangle_120" data-name="Rectangle 120" width="62.318" height="4.969" transform="translate(134.748 189.633)" fill="#eee"/>
        <g transform="matrix(1, 0, 0, 1, -59.64, 0)" filter="url(#Rectangle_121)">
          <rect id="Rectangle_121-2" data-name="Rectangle 121" width="27.908" height="8.794" rx="4.397" transform="translate(211.59 77.62)" fill="url(#linear-gradient-2)"/>
        </g>
        <g transform="matrix(1, 0, 0, 1, -59.64, 0)" filter="url(#Ellipse_15)">
          <ellipse id="Ellipse_15-2" data-name="Ellipse 15" cx="11.769" cy="11.826" rx="11.769" ry="11.826" transform="translate(151.74 118.22)" fill="url(#linear-gradient-2)"/>
        </g>
        <ellipse id="Ellipse_20" data-name="Ellipse 20" cx="11.769" cy="11.826" rx="11.769" ry="11.826" transform="translate(99.742 173.657)" fill="#e0e0e0"/>
        <ellipse id="Ellipse_21" data-name="Ellipse 21" cx="11.769" cy="11.826" rx="11.769" ry="11.826" transform="translate(99.742 219.152)" fill="#e0e0e0"/>
        <rect id="Rectangle_122" data-name="Rectangle 122" width="62.318" height="4.969" transform="translate(134.748 223.661)" fill="#e0e0e0"/>
        <rect id="Rectangle_123" data-name="Rectangle 123" width="62.318" height="4.969" transform="translate(134.748 233.599)" fill="#eee"/>
        <rect id="Rectangle_124" data-name="Rectangle 124" width="62.318" height="4.969" transform="translate(134.748 57.738)" fill="#e0e0e0"/>
        <rect id="Rectangle_125" data-name="Rectangle 125" width="62.318" height="4.969" transform="translate(134.748 67.679)" fill="#e0e0e0"/>
        <path id="Path_1467" data-name="Path 1467" d="M383.951,106.425l28.42-.427a.7.7,0,0,1,.712.691l.007.46a.7.7,0,0,1-.691.712l-28.42.427a.7.7,0,0,1-.712-.691l-.007-.46A.7.7,0,0,1,383.951,106.425Z" transform="translate(-248.771 -68.803)" fill="#dbdbdb"/>
        <ellipse id="Ellipse_22" data-name="Ellipse 22" cx="1.119" cy="1.119" rx="1.119" ry="1.119" transform="translate(169.533 36.718)" fill="#dbdbdb"/>
      </g>
    </g>
    <g id="woman">
      <ellipse id="Ellipse_41" data-name="Ellipse 41" cx="36.41" cy="4.818" rx="36.41" ry="4.818" transform="translate(326.65 635.852)" fill="#f2f2f2"/>
      <g id="Group_423" data-name="Group 423" transform="translate(290.101 468.662)">
        <path id="Path_1553" data-name="Path 1553" d="M231.136,46.559h.133a.783.783,0,0,1,.783.783V54a.783.783,0,0,1-.783.783h-.133a.783.783,0,0,1-.783-.783V47.343A.783.783,0,0,1,231.136,46.559Z" transform="translate(-151.564 -30.634)" fill="#3a3768"/>
        <path id="Path_1554" data-name="Path 1554" d="M230.956,90.579h.349a.783.783,0,0,1,.783.783v12.744a.783.783,0,0,1-.783.783h-.349a.783.783,0,0,1-.783-.783V91.363A.783.783,0,0,1,230.956,90.579Z" transform="translate(-151.445 -59.598)" fill="#3a3768"/>
        <path id="Path_1555" data-name="Path 1555" d="M231.046,147.059h.257a.783.783,0,0,1,.783.783V160.71a.783.783,0,0,1-.783.783h-.257a.783.783,0,0,1-.783-.783V147.843A.783.783,0,0,1,231.046,147.059Z" transform="translate(-151.504 -96.76)" fill="#3a3768"/>
        <path id="Path_1556" data-name="Path 1556" d="M164.213,258.649a.314.314,0,0,0,.373.048A1.316,1.316,0,0,1,164.213,258.649Z" transform="translate(-108.046 -170.182)" fill="url(#linear-gradient-9)"/>
        <path id="Path_1557" data-name="Path 1557" d="M97.153,20.4c-.722-.212-1.748-.558-2.989-.992a16.018,16.018,0,0,0,2.77-5.654l-.106.041c.034-.127.072-.25.106-.376-2.374.978-5-.684-6.677-2.808s-2.812-4.768-4.641-6.728a21.444,21.444,0,0,0-2.459-2.145A3.268,3.268,0,0,0,81.371.855C80.3.824,79.466,1.881,78.437,2.2a3.975,3.975,0,0,1-2.052-.075C73.727,1.5,71.165.366,68.466.072a9.149,9.149,0,0,0-4.3.489c-1.368.527-1.984,1.57-3.078,2.394-1.187.9-3.55.876-4.949,1.026a35.442,35.442,0,0,1-5.11.215,11.588,11.588,0,0,0-2.942.109c-2.032.451-3.663,2.086-5.185,3.66a2.736,2.736,0,0,0-.859,1.368,1.816,1.816,0,0,0,0,.451,2.938,2.938,0,0,0,.205,1.2,15.874,15.874,0,0,0,1.95,3.988,11.955,11.955,0,0,1,1.71,2.818,5.551,5.551,0,0,1,.263,1.625,12.458,12.458,0,0,1-.181,1.748,22.231,22.231,0,0,1-1.317,4.648,8.937,8.937,0,0,0-.77,2.452,4.427,4.427,0,0,0,0,.52c-.1,2.678,2.569,4.611,3.078,7.275a4.854,4.854,0,0,1,.075.667,4.548,4.548,0,0,1-2.367,3.93c.12.048.243.089.366.133a3.847,3.847,0,0,1-.366.205c.25.1.506.178.766.253a18,18,0,0,0-3.9,4.85c-4.6,8.732-35.982,25.861-35.982,25.861s.178.1.465.27c-.116.072-.239.154-.376.246C2.949,74.307-3.426,79.657,2.337,86.4c0,0,4.5-7.2,7.648-10.261.144-.137.28-.263.414-.383a.934.934,0,0,1,.123.739L31.157,64.74s7.333-5.206,9.379-6.382a16.838,16.838,0,0,1,4.648-2.021l-.239.106a9.286,9.286,0,0,1,2.367-.342c3.653.058,7.607,2.771,8.913,13.514,1.748,14.386.937,16.979.376,17.334a.986.986,0,0,1-.205-.038.308.308,0,0,0,.055.041.992.992,0,0,1-.226-.041.315.315,0,0,0,.3.075.294.294,0,0,0,.229-.027h.277c0,.13-.021.267-.031.4-.027,0-.164.079,0,.089h0c-.041.811-.038,1.71,0,2.617-1.816.1-3.629.212-5.219.311l.144-.763.065-.342c1.392-.113,2.716-.527,2.87-1.676.342-2.517-3.078-3.862-5.969-4.029S28.6,84.575,28.6,84.575s-2.61,3.42,5.664,4.484c.246.13.5.274.763.424a91.717,91.717,0,0,1,9.741,7.022l.294.236-.944.763c5.131,1.177,10.063,20.994,12.789,30.062s8.7,8.732,13.644,7.391c4.635-1.262,5.226-14.906,5.281-16.62v-.174l8.24,10.3.626.783c.243.127.479.246.711.359a7.964,7.964,0,0,0,11.174-9.327c-1.98-6.636-5.059-16.442-7.111-20.587-1.71-3.472-3.937-9.235-5.284-12.854a4.736,4.736,0,0,0,.51-.246s-.031-.161-.085-.458l.085-.044A129.617,129.617,0,0,1,82.6,68.219v-.633c1.491-.342,2.435-.479,2.435-.479l.027-.322-.174.038.828-9.625s3.044-6.564.715-9.3a5.815,5.815,0,0,1-1.368-2.842c-.39-2.517,0-6.707,5.428-10.193,8.356-5.373,11.6-9.741,11.6-9.741S102.27,21.914,97.153,20.4Zm-16.6,6.677V22.632c1.549-.075,3.133.106,4.689,0a11.824,11.824,0,0,0,2.264-.383l.376.263A41.29,41.29,0,0,1,80.557,27.079ZM56.868,96.789c.612.431,1.228.879,1.833,1.327.376,2.192.708,3.742.732,3.848A30.865,30.865,0,0,0,56.868,96.789Z" transform="translate(0 0)" fill="url(#linear-gradient-10)"/>
        <path id="Path_1558" data-name="Path 1558" d="M167.86,274.769l-.369,2-.284,1.532-.516,2.8-5.007,3.506s-.451-.386-1.2-1a87.257,87.257,0,0,0-9.533-6.978,10.669,10.669,0,0,0-2.62-1.207Z" transform="translate(-97.597 -180.788)" fill="#ffbdc6"/>
        <path id="Path_1559" data-name="Path 1559" d="M167.86,274.769l-.369,2a15.64,15.64,0,0,1-3.3-.171l-11.684.168c-.551-.034-1.067-.075-1.549-.127a10.669,10.669,0,0,0-2.62-1.207Z" transform="translate(-97.597 -180.788)" opacity="0.1"/>
        <path id="Path_1560" data-name="Path 1560" d="M156.392,268.518s5.839,1,6.181-1.491-3.007-3.841-5.842-4.009-19.862,1-19.862,1-3,4.005,7.843,4.676Z" transform="translate(-89.804 -173.045)" fill="#474463"/>
        <path id="Path_1561" data-name="Path 1561" d="M167.86,274.769l-.369,2-.284,1.532-.516,2.8-5.007,3.506s-.451-.386-1.2-1a87.257,87.257,0,0,0-9.533-6.978,10.669,10.669,0,0,0-2.62-1.207Z" transform="translate(-97.597 -180.788)" fill="#ffdad3" opacity="0.1"/>
        <path id="Path_1562" data-name="Path 1562" d="M167.86,274.769l-.369,2a15.64,15.64,0,0,1-3.3-.171l-11.684.168c-.551-.034-1.067-.075-1.549-.127a10.669,10.669,0,0,0-2.62-1.207Z" transform="translate(-97.597 -180.788)" opacity="0.1"/>
        <path id="Path_1563" data-name="Path 1563" d="M156.386,268.478s5.842,1,6.177-1.5-3.007-3.838-5.842-4.005-19.862,1-19.862,1-3,4.005,7.843,4.672Z" transform="translate(-89.797 -173.012)" opacity="0.1"/>
        <rect id="Rectangle_179" data-name="Rectangle 179" width="30.544" height="36.218" transform="translate(48.813 13.192)" fill="#474463"/>
        <rect id="Rectangle_180" data-name="Rectangle 180" width="30.544" height="36.218" transform="translate(48.813 13.356)" opacity="0.1"/>
        <path id="Path_1564" data-name="Path 1564" d="M15.675,214.049a4.89,4.89,0,0,0-1.861,1.317c-3.078,3.048-7.487,10.2-7.487,10.2-5.637-6.714.6-12.019,3.26-13.842.646-.441,1.081-.684,1.081-.684Z" transform="translate(-2.66 -138.856)" fill="#ffdad3"/>
        <path id="Path_1565" data-name="Path 1565" d="M173.3,71.989s1.5,10.514,6.677,13.018S173.3,92.19,173.3,92.19l-16.189-6.013s9.18-3.007,7.344-11.852Z" transform="translate(-103.374 -47.366)" fill="#ffdad3"/>
        <path id="Path_1566" data-name="Path 1566" d="M116.1,256.929l-.366,2-.3,1.539-.516,2.8-5.007,3.5s-.451-.383-1.2-.992a86.984,86.984,0,0,0-9.536-6.978,10.6,10.6,0,0,0-2.62-1.207Z" transform="translate(-63.535 -169.05)" fill="#ffdad3"/>
        <path id="Path_1567" data-name="Path 1567" d="M116.13,256.929l-.366,2a15.643,15.643,0,0,1-3.3-.171l-11.684.168c-.551-.034-1.071-.075-1.553-.127a10.6,10.6,0,0,0-2.62-1.207Z" transform="translate(-63.561 -169.05)" opacity="0.1"/>
        <path id="Path_1568" data-name="Path 1568" d="M104.664,250.688s5.842,1,6.174-1.5-3-3.841-5.842-4.009-19.859,1-19.859,1-3.006,4.005,7.843,4.676Z" transform="translate(-55.766 -161.307)" fill="#474463"/>
        <path id="Path_1569" data-name="Path 1569" d="M138.824,267.046l-.516,2.8-5.007,3.5s-.451-.383-1.2-.992l6.622-5.432Z" transform="translate(-86.919 -175.63)" opacity="0.1"/>
        <path id="Path_1570" data-name="Path 1570" d="M170.717,290.99c-.229-.113-.458-.229-.684-.342l-.616-.776-8.075-10.241v.178c-.055,1.71-.636,15.262-5.172,16.514-4.84,1.334-10.678,1.669-13.339-7.344s-7.525-28.707-12.519-29.877l7.429-6.092s4.918,5.753,6.923,11.26c-.075-.342-3.472-16.213-.684-19.021h24.37s3.762,10.716,6.341,16.024c2.008,4.122,5.021,13.866,6.96,20.461A7.828,7.828,0,0,1,170.717,290.99Z" transform="translate(-85.741 -161.365)" fill="#474463"/>
        <path id="Path_1571" data-name="Path 1571" d="M194.126,209.047c-3.762,2.227-20.279,1.32-25.653.958l-1.464-.106c-.157,0,.024-.089.024-.089l.15-1.515,4.005-10.179,21.446-12.436a18.673,18.673,0,0,0-.544,5.609A130.266,130.266,0,0,0,194.126,209.047Z" transform="translate(-109.844 -122.17)" opacity="0.1"/>
        <path id="Path_1572" data-name="Path 1572" d="M193.782,207.6c-3.762,2.227-20.279,1.32-25.653.958l-1.464-.1-.243-.021.267-.068,1.32-.342,2.836-11.349,21.446-12.433a18.671,18.671,0,0,0-.544,5.609A130.175,130.175,0,0,0,193.782,207.6Z" transform="translate(-109.5 -121.223)" fill="#f2f1f2"/>
        <path id="Path_1573" data-name="Path 1573" d="M192.174,189.842c-4.361,1.006-13.959,3.957-17.646,11.082-2.459,4.744-4.529,6.779-5.972,7.631l-1.464-.1a.878.878,0,0,0,.024-.089l1.32-.342,2.835-11.349,21.446-12.433A18.709,18.709,0,0,0,192.174,189.842Z" transform="translate(-109.941 -121.223)" opacity="0.1"/>
        <path id="Path_1574" data-name="Path 1574" d="M21.334,211.059l5.007,3a4.89,4.89,0,0,0-1.861,1.317c-.417-1.218-3.037-2.918-4.228-3.643C20.9,211.3,21.334,211.059,21.334,211.059Z" transform="translate(-13.326 -138.869)" opacity="0.1"/>
        <path id="Path_1575" data-name="Path 1575" d="M163.825,255.507a.3.3,0,0,1-.342-.048A1.188,1.188,0,0,0,163.825,255.507Z" transform="translate(-107.566 -168.083)" opacity="0.1"/>
        <path id="Path_1576" data-name="Path 1576" d="M80.719,59a9.924,9.924,0,0,1-7.679-2.839S59.7,60,55.182,68.675s-35.23,25.7-35.23,25.7,5.343,3,4.84,4.5L44.99,87.2s7.183-5.172,9.177-6.341S67.188,72.513,69.524,92.04s0,17.191,0,17.191,3.338,1.17,8.178-8.178S97.561,89.536,97.561,89.536l.835-9.844s2.979-6.526.684-9.235a5.815,5.815,0,0,1-1.337-2.825c-.38-2.5,0-6.666,5.315-10.128,8.178-5.343,11.349-9.68,11.349-9.68s.168-3.174-4.84-4.676S84.2,33.469,84.2,33.469l-.684,2.839L99.579,47.647s-8.011,6.5-14.366,6.341C85.213,53.988,86.393,58.828,80.719,59Z" transform="translate(-13.128 -22.022)" fill="#67647e"/>
        <path id="Path_1577" data-name="Path 1577" d="M187.473,77.526a32.594,32.594,0,0,1-.924-4.077L177.7,75.785a9.7,9.7,0,0,1-.2,5.1,9.512,9.512,0,0,0,9.97-3.362Z" transform="translate(-116.79 -48.327)" opacity="0.1"/>
        <ellipse id="Ellipse_25" data-name="Ellipse 25" cx="9.512" cy="9.512" rx="9.512" ry="9.512" transform="translate(53.824 13.36)" fill="#ffdad3"/>
        <path id="Path_1578" data-name="Path 1578" d="M150.16,3.469c2.641.3,5.148,1.433,7.747,2.052a3.845,3.845,0,0,0,2,.079c1.009-.315,1.83-1.368,2.877-1.337a3.059,3.059,0,0,1,1.744.879,21.123,21.123,0,0,1,2.394,2.134c1.792,1.946,2.9,4.566,4.539,6.683s4.214,3.762,6.536,2.791c-1.58,6.157-6.755,10.846-12.354,11.229-2.233.15-4.522-.315-6.683.342a5.9,5.9,0,0,1-1.686.41c-1.245,0-2.247-1.142-3.024-2.254-1.82-2.613-3.26-5.582-5.308-7.966a4.376,4.376,0,0,0-2.432-1.679,4.5,4.5,0,0,0-2.688.752,12.675,12.675,0,0,0-3.933,2.736,5.444,5.444,0,0,0-1.327,4.789,11.187,11.187,0,0,1,.807,2.682c.021,1.515-1.32,2.627-1.584,4.1a15.409,15.409,0,0,0-.065,1.868A7.641,7.641,0,0,1,134.9,38.72a3.561,3.561,0,0,0-1.293,1.792c-.106.52,0,1.074-.068,1.6a2.918,2.918,0,0,1-2.671,2.155,7.775,7.775,0,0,1-4.009-.475,4.627,4.627,0,0,0,2.244-4.9c-.516-2.709-3.239-4.652-3.006-7.412a8.623,8.623,0,0,1,.752-2.439,22.252,22.252,0,0,0,1.286-4.617,7.787,7.787,0,0,0-.079-3.684,11.4,11.4,0,0,0-1.662-2.8,15.9,15.9,0,0,1-1.926-3.947,2.736,2.736,0,0,1-.185-1.3,2.681,2.681,0,0,1,.838-1.368c1.488-1.563,3.078-3.191,5.072-3.636a11.263,11.263,0,0,1,2.88-.113,33.52,33.52,0,0,0,5-.212c1.368-.161,3.68-.137,4.84-1.026,1.081-.831,1.69-1.868,3.02-2.394A8.831,8.831,0,0,1,150.16,3.469Z" transform="translate(-81.766 -2.231)" opacity="0.1"/>
        <path id="Path_1579" data-name="Path 1579" d="M215.423,290.839s5.507,10.849,3.838,14.184" transform="translate(-141.74 -191.362)" opacity="0.1"/>
        <path id="Path_1580" data-name="Path 1580" d="M228.971,351.669l-8.065-10.227v.178s-.465-3.311,1.071-2.2c3.366,2.435,8.749,6.427,8.866,7.114S229.75,349.969,228.971,351.669Z" transform="translate(-145.304 -223.176)" opacity="0.1"/>
        <g id="Group_422" data-name="Group 422" transform="translate(7.006 11.434)" opacity="0.1">
          <path id="Path_1581" data-name="Path 1581" d="M208.351,93.2s.684,2.818-1.519,4.228a3.757,3.757,0,0,0,3.42-4.361A10.743,10.743,0,0,1,208.351,93.2Z" transform="translate(-143.094 -72.67)"/>
          <path id="Path_1582" data-name="Path 1582" d="M22.319,137.878s30.708-17.023,35.23-25.7c3.232-6.228,11.024-9.964,15.163-11.578-3.017,1.026-13.182,4.895-17,12.245-4.5,8.677-35.23,25.7-35.23,25.7Z" transform="translate(-20.483 -77.625)"/>
          <path id="Path_1583" data-name="Path 1583" d="M214.034,52.635a36.176,36.176,0,0,0,10.22-5.681L208.219,35.6l.366-1.553-1.536-.616-.667,2.839,16.024,11.349A38.719,38.719,0,0,1,214.034,52.635Z" transform="translate(-142.798 -33.429)"/>
          <path id="Path_1584" data-name="Path 1584" d="M229.023,198.358a39.859,39.859,0,0,1,6.28-1.587l.027-.322A42.582,42.582,0,0,0,229.023,198.358Z" transform="translate(-157.694 -140.69)"/>
          <path id="Path_1585" data-name="Path 1585" d="M146.214,194.159h-.147a.3.3,0,0,1-.342-.048,1.2,1.2,0,0,0,.342.048c.547-.318,1.368-2.812-.342-17.239-1.84-15.392-9.081-14.191-13.042-12.419,4.05-1.115,9.621-.151,11.205,13.086,1.727,14.427.9,16.921.342,17.239A3.7,3.7,0,0,0,146.214,194.159Z" transform="translate(-94.306 -119.006)"/>
          <path id="Path_1586" data-name="Path 1586" d="M165.785,255.017a1.2,1.2,0,0,1-.342-.048A.3.3,0,0,0,165.785,255.017Z" transform="translate(-115.861 -179.194)"/>
        </g>
        <path id="Path_1587" data-name="Path 1587" d="M150.161,2.5c2.641.3,5.148,1.433,7.747,2.052a3.845,3.845,0,0,0,2,.075c1.009-.311,1.83-1.368,2.876-1.337a3.19,3.19,0,0,1,1.744.879A21.458,21.458,0,0,1,166.928,6.3c1.792,1.946,2.9,4.566,4.539,6.683s4.214,3.762,6.536,2.791c-1.58,6.157-6.755,10.846-12.354,11.229-2.234.154-4.522-.311-6.683.342a5.791,5.791,0,0,1-1.686.41c-1.245,0-2.247-1.142-3.024-2.254-1.82-2.613-3.26-5.579-5.308-7.963a4.365,4.365,0,0,0-2.432-1.683,4.5,4.5,0,0,0-2.688.756,12.617,12.617,0,0,0-3.933,2.736,5.445,5.445,0,0,0-1.327,4.789,11.188,11.188,0,0,1,.807,2.682c.02,1.519-1.32,2.627-1.584,4.1a15.39,15.39,0,0,0-.065,1.868,7.649,7.649,0,0,1-2.822,4.956,3.552,3.552,0,0,0-1.293,1.789c-.106.523,0,1.074-.068,1.6A2.91,2.91,0,0,1,130.87,43.3a7.706,7.706,0,0,1-4.009-.475,4.622,4.622,0,0,0,2.244-4.9c-.516-2.709-3.239-4.655-3.006-7.412a8.588,8.588,0,0,1,.752-2.439,22.343,22.343,0,0,0,1.286-4.621,7.788,7.788,0,0,0-.079-3.684,11.457,11.457,0,0,0-1.662-2.8,15.926,15.926,0,0,1-1.926-3.944,2.773,2.773,0,0,1-.185-1.307,2.7,2.7,0,0,1,.838-1.351C126.612,8.8,128.2,7.173,130.2,6.725a11.417,11.417,0,0,1,2.88-.109,33.992,33.992,0,0,0,5-.212c1.368-.161,3.68-.14,4.84-1.026,1.081-.828,1.69-1.868,3.02-2.394A8.893,8.893,0,0,1,150.161,2.5Z" transform="translate(-81.767 -1.598)" fill="#474463"/>
      </g>
    </g>
    <g id="man">
      <ellipse id="Ellipse_42" data-name="Ellipse 42" cx="36.41" cy="4.818" rx="36.41" ry="4.818" transform="translate(65.654 612.339)" fill="#f2f2f2"/>
      <g id="Group_425" data-name="Group 425" transform="translate(64.097 461.77)">
        <path id="Path_1588" data-name="Path 1588" d="M.563,56.789a16.749,16.749,0,0,1,0-8.527V44.239S-.886,36.376,5.581,31.331l4.287-3.782s2.4-2.065,3.1-2.195a3.159,3.159,0,0,1,.395-.059l.126-.075a12.9,12.9,0,0,0,.94-1.974,1.828,1.828,0,0,1-1.528-.521,1.974,1.974,0,0,1-.359-.6h0c-.249-.557-.292-1.232-.5-1.824a4.342,4.342,0,0,0-.79-1.311c.043.071.091.138.13.213-.608-.758-1.4-1.405-1.974-2.2A4.941,4.941,0,0,1,9.1,16.5c.024.036.055.067.083.1a11.222,11.222,0,0,1-1.259-4.283A3.853,3.853,0,0,1,7.9,10.792a5.578,5.578,0,0,1,.426-.971c.932-1.922.916-4.342,2.4-5.878a7.244,7.244,0,0,1,4.417-1.7A11.478,11.478,0,0,0,19.8,1.1,4.911,4.911,0,0,1,21.06.406,1.034,1.034,0,0,1,22.3.864a.813.813,0,0,0,.166.336.537.537,0,0,0,.474.028L25.063.659l-.024.107h.055l-.079.336a.182.182,0,0,0-.2.114l.343.529a5.333,5.333,0,0,0,1.919-.395.446.446,0,0,1,0,.1h.032c.039.6-.643.991-.853,1.555a1.184,1.184,0,0,0,0,.762,1.67,1.67,0,0,0,.395.608c.754.746,1.721.6,2.59,1.07a.561.561,0,0,1,.316.351.257.257,0,0,1,.028.193.458.458,0,0,1-.178.221,3.948,3.948,0,0,1-.825.513c.087.079.17.158.249.241A9.513,9.513,0,0,1,25.54,22.489c-.032.166-.055.336-.079.513v.051l-.024.229L28.3,24.5a2.282,2.282,0,0,0,2.053-1.322c.667-1.378,3.024,0,3.024,0s7.189-.537,9.869.79c0,0,4.291-1.8,4.9-1.922s1.508-.6,1.93-.478.967-.79,1.271-.722.422-.6,1.39-.841,1.33.063,2.416-1.018,9.913-5.345,9.913-5.345l3.963-3.261,4.228-3.363.075.138c.028-.1.055-.2.083-.312a40.5,40.5,0,0,1,1.579-4.93c.272-.651.395-1.472.762-1.038.225.261.608-.312,1.184-.7a1,1,0,0,1,1.488.434h0C81.72,5.775,82.9,6.138,80.994,8.037c-1.7,1.686-2.83,3.158-4.216,3.624l-.166.051a.178.178,0,0,0,.091,0L68.665,21.32s-5.8,5.045-9.79,6.663-3.683,2.1-3.683,2.1-12.088,6.123-13.959,6S39.72,48.641,40.506,50.7,42.559,67.51,42.559,67.51s1.212,3.122-.059,5.282a33.358,33.358,0,0,0-.028,5.132A17.638,17.638,0,0,1,45.4,85.467a4.387,4.387,0,0,0,.047.458,1.066,1.066,0,0,0,.284.233l-.268-.079a15.2,15.2,0,0,0,.79,3.624,14.728,14.728,0,0,1,1,5.155V104.4l.79,5.921s.967,4.48,0,5.527a2.558,2.558,0,0,0-.529,1.84,3.426,3.426,0,0,1-.616,2.147,1.607,1.607,0,0,0-.395,1.378c.32,1.038-.474,12.087-.474,12.087s.233,3.044.553,3.205-.553,3.521-.553,3.521,3.265,2.724,2.432,4.165l-.833,1.279.221.217.134.138a1.287,1.287,0,0,1,.833-.158,31.817,31.817,0,0,0,3.284,2.925,35.661,35.661,0,0,0,5.479,2.6l3.158.257H60.8s1.512-.142.663,2.2-8.436,1.622-8.436,1.622l-4.429-.7s-7.9.039-10.157-.462c-.943-.209-1.184-.714-1.105-1.224h0l.024-.024A3.158,3.158,0,0,1,38,151.537a.5.5,0,0,1,.055-.071l-.142-1.618c-3.352-1.93.947-5.728.947-5.728a39.755,39.755,0,0,0-2.227-4.24c-.754-1.038-.754-16.335-.754-16.335s-.395-5.527.643-6.806a2.3,2.3,0,0,0-1.129-2.08c-.746-.509-3-7.524-4.769-13.347l-1.113,6.861s.241,3.284-.482,4.244a1.634,1.634,0,0,0-.3,1.279,5.763,5.763,0,0,1-.162,2.763,1.828,1.828,0,0,1-.588.987c-.643.32-.683,1.461-.924,1.7s-1.733-.34-1.812.541a19.934,19.934,0,0,0,0,2.321l-.486,14.251s.79,1.184.967,4.342a5.586,5.586,0,0,0,.58,2.55,1.307,1.307,0,0,1-.118,1.532l-.138.162.6.458a1.314,1.314,0,0,1,.371,1.622,1.275,1.275,0,0,1,.367,1.382.964.964,0,0,1-.1.225,2.242,2.242,0,0,1,1.2.6,9.869,9.869,0,0,0,2.128,2.14,40.94,40.94,0,0,1,3.391,2.905,4.872,4.872,0,0,0,1.974,1.579,3.259,3.259,0,0,0,.6.178c1.579.324,1.086,1.974-.2,2.246s-5.558,1.579-8.882.817a3.137,3.137,0,0,1-2.436-.339,35.782,35.782,0,0,0-4.682-1.634s-1.812,0-2.057-.718a2.818,2.818,0,0,1-.1-.7l-.051-.051.047-.043a9.577,9.577,0,0,1,.122-1.607c.047-.276.1-.521.146-.718.154-.6.442-1.378.565-1.705a.606.606,0,0,1-.055-.083c-.691-1.184.458-3.995.458-3.995a7.658,7.658,0,0,0-1.362-1.615c-.643-.482-2.337-12.972-2.337-12.972s.083-3.2-.79-4.642S16.168,118,16.168,118s.888-2,.565-2.724.324-3.363.324-3.363v-3.158a3.489,3.489,0,0,1,.186-1.105,5.233,5.233,0,0,0,.217-3.19c-.565-1.441-1.851-10.327-1.851-10.327s1.007-3.92-.47-7.042a6.134,6.134,0,0,0-.395-.722c-1.094-1.717-.766-4.769-.225-7.228.079-.395.17-.75.261-1.093.036-.15.075-.292.114-.434l-.174-.071a5.113,5.113,0,0,0-.055-.632A4.437,4.437,0,0,1,11.759,74.9s-3.687-4.145-6.948-5.886-3.506-4.263-3.506-4.263c.482-.841-.865-4.263-.865-4.263Zm12.85-31.434ZM11.2,62.315l3.49,4.046v-.024c.908-1.263-.845-4.086-.845-4.086l-2.9-6.474a3.663,3.663,0,0,0,.395,1.907c.79,1.082-1.453,2.886-1.453,2.886C11.08,60.574,11.2,62.315,11.2,62.315Z" transform="translate(0 0)" fill="url(#linear-gradient-11)"/>
        <path id="Path_1589" data-name="Path 1589" d="M2.26,11.327l1.907,3.7a7.5,7.5,0,0,0,1.773-.371,6.711,6.711,0,0,0,4.165-3.6A5.236,5.236,0,0,0,7.68,4.15c-1.311-.718-2.53-1.536-3.513.821a40.758,40.758,0,0,0-1.544,4.9C2.394,10.735,2.26,11.327,2.26,11.327Z" transform="translate(70.38 -2.062)" fill="#ffdad3"/>
        <path id="Path_1590" data-name="Path 1590" d="M138.8,54.035l3.044,4.532s14.381,6.861,11.634-1.184a18.078,18.078,0,0,1-1.133-7.942v-.051a6.388,6.388,0,0,1,1.129-3.221s-14.018-7.177-11.93-2.27a6.757,6.757,0,0,1,.493,3.229,11.006,11.006,0,0,1-1.508,4.48A14.891,14.891,0,0,1,138.8,54.035Z" transform="translate(-126.716 -25.531)" fill="#ffdad3"/>
        <path id="Path_1591" data-name="Path 1591" d="M86.653,234.591s-2.069,8.685-1.184,10.1.79,4.615.79,4.615,1.67,12.411,2.305,12.885a7.586,7.586,0,0,1,1.354,1.579s-1.137,2.811-.454,3.971a.963.963,0,0,0,.454.395c1.066.45,5.006-1.547,7.248-2.763a1.279,1.279,0,0,0,.229-2.084,1.3,1.3,0,0,0-.363-1.611l-.592-.458.138-.162a1.307,1.307,0,0,0,.118-1.524,5.529,5.529,0,0,1-.572-2.53,9.268,9.268,0,0,0-.955-4.295l.478-14.164a19.648,19.648,0,0,1,0-2.305c.079-.872,1.551-.3,1.788-.537s.28-1.37.916-1.69a1.812,1.812,0,0,0,.576-.983,5.68,5.68,0,0,0,.162-2.763,1.63,1.63,0,0,1,.3-1.271c.715-.955.478-4.212.478-4.212l1.1-6.821c1.749,5.787,3.971,12.758,4.71,13.264a2.294,2.294,0,0,1,1.113,2.065c-1.034,1.275-.636,6.766-.636,6.766s0,15.19.746,16.228a39.277,39.277,0,0,1,2.191,4.232s-4.263,3.794-.908,5.708h.036c3.423,1.911,10.5-3.419,10.5-3.419l-.738-.738-.217-.217.837-1.247c.821-1.433-2.4-4.137-2.4-4.137s.861-3.344.545-3.5-.545-3.182-.545-3.182.79-10.978.466-12.012a1.618,1.618,0,0,1,.395-1.37,3.407,3.407,0,0,0,.608-2.132,2.534,2.534,0,0,1,.525-1.828c.955-1.034,0-5.487,0-5.487l-.79-5.89v-9.352a14.909,14.909,0,0,0-1-5.278,15.79,15.79,0,0,1-.868-4.236,17.758,17.758,0,0,0-2.973-7.615c-.576-.884-1.007-1.413-1.007-1.413L86.1,192.179s-.395,1.133-.821,2.708c-.087.343-.174.707-.257,1.086-.533,2.447-.853,5.479.225,7.185a6.677,6.677,0,0,1,.395.718c1.457,3.1.462,7,.462,7s1.271,8.827,1.828,10.264a5.155,5.155,0,0,1-.217,3.158,3.592,3.592,0,0,0-.178,1.1v3.146s-.64,2.625-.32,3.344S86.653,234.591,86.653,234.591Z" transform="translate(-70.189 -116.316)" fill="#444053"/>
        <path id="Path_1592" data-name="Path 1592" d="M162.711,209.613a6.045,6.045,0,0,1,.395.714l1.433-.079c-.138-.738.837-7.658.837-7.658l-2.886-.162C161.957,204.872,161.634,207.9,162.711,209.613Z" transform="translate(-147.419 -122.519)" opacity="0.1"/>
        <path id="Path_1593" data-name="Path 1593" d="M163.313,209a6.675,6.675,0,0,1,.395.718l1.433-.083c-.138-.734.837-7.658.837-7.658l-2.886-.162C162.555,204.266,162.235,207.3,163.313,209Z" transform="translate(-148.258 -122.15)" fill="#444053"/>
        <path id="Path_1594" data-name="Path 1594" d="M163.313,209a6.675,6.675,0,0,1,.395.718l1.433-.083c-.138-.734.837-7.658.837-7.658l-2.886-.162C162.555,204.266,162.235,207.3,163.313,209Z" transform="translate(-148.258 -122.15)" opacity="0.05"/>
        <path id="Path_1595" data-name="Path 1595" d="M137.646,378.878a.963.963,0,0,0,.454.395c1.066.45,5.006-1.547,7.248-2.763a1.291,1.291,0,0,0,.6-.711c-1.279-.233-2.116,1.184-2.116,1.184a1.887,1.887,0,0,0-2.6.6l-.024.039c-1.094,1.611-3.438.932-3.438.932Z" transform="translate(-118.375 -227.436)" opacity="0.1"/>
        <path id="Path_1596" data-name="Path 1596" d="M112.27,384.135c.237.718,2.029.718,2.029.718a38.194,38.194,0,0,1,4.635,1.63,3.168,3.168,0,0,0,2.4.339c3.281.754,7.5-.557,8.772-.817s1.769-1.907.2-2.226a3.191,3.191,0,0,1-.588-.182,4.8,4.8,0,0,1-1.974-1.579,40.352,40.352,0,0,0-3.352-2.886,9.8,9.8,0,0,1-2.1-2.128c-1.871-1.65-3.2.616-3.2.616a1.887,1.887,0,0,0-2.6.6l-.025.041c-1.093,1.611-3.438.928-3.438.928s-.422,1.078-.62,1.851c-.047.2-.1.442-.146.719A6.522,6.522,0,0,0,112.27,384.135Z" transform="translate(-93.658 -227.817)" fill="#67647e"/>
        <ellipse id="Ellipse_27" data-name="Ellipse 27" cx="0.217" cy="0.217" rx="0.217" ry="0.217" transform="translate(23.866 150.854)" fill="#575988"/>
        <ellipse id="Ellipse_28" data-name="Ellipse 28" cx="0.217" cy="0.217" rx="0.217" ry="0.217" transform="translate(25.734 152.603)" fill="#575988"/>
        <ellipse id="Ellipse_29" data-name="Ellipse 29" cx="0.217" cy="0.217" rx="0.217" ry="0.217" transform="translate(27.633 154.174)" fill="#575988"/>
        <ellipse id="Ellipse_30" data-name="Ellipse 30" cx="0.217" cy="0.217" rx="0.217" ry="0.217" transform="translate(26.65 153.471)" fill="#575988"/>
        <ellipse id="Ellipse_31" data-name="Ellipse 31" cx="0.217" cy="0.217" rx="0.217" ry="0.217" transform="translate(24.759 151.675)" fill="#575988"/>
        <path id="Path_1597" data-name="Path 1597" d="M112.268,392.333c.237.718,2.029.718,2.029.718a38.2,38.2,0,0,1,4.635,1.63,3.169,3.169,0,0,0,2.4.339c3.281.754,7.5-.557,8.772-.817s1.769-1.907.2-2.226a3.179,3.179,0,0,1-.588-.182,15.271,15.271,0,0,1-4.3.817c-3.241.138-5.807,0-5.807,0l-3.281-1.054a5.483,5.483,0,0,0-2.029-.734,5.306,5.306,0,0,1-2.017-.876A6.193,6.193,0,0,0,112.268,392.333Z" transform="translate(-93.656 -236.015)" fill="#dce6f2"/>
        <path id="Path_1598" data-name="Path 1598" d="M146.6,396.641a2.707,2.707,0,0,0,.545-.051l-.047-.233a3.474,3.474,0,0,1-1.974-.276c-.292-.115-.584-.253-.868-.395a10.9,10.9,0,0,0-1.038-.45l-.324-.111c-.178-.063-.359-.122-.533-.2-.1-.039-.2-.087-.292-.134a3.359,3.359,0,0,0-.734-.28,3.623,3.623,0,0,0-.395-.051,3.482,3.482,0,0,1-.363-.043,3.417,3.417,0,0,1-.691-.257,3.333,3.333,0,0,0-.742-.276l-.174-.028a.848.848,0,0,1-.513-.189l-.178.162a1.07,1.07,0,0,0,.651.264l.166.028a3.2,3.2,0,0,1,.691.257,3.619,3.619,0,0,0,.742.272,2.642,2.642,0,0,0,.395.047,3.546,3.546,0,0,1,.371.047,3.164,3.164,0,0,1,.683.264l.3.138c.182.075.371.138.553.2l.316.111c.347.126.687.288,1.019.442s.584.276.884.395A4.305,4.305,0,0,0,146.6,396.641Z" transform="translate(-119.822 -238.267)" fill="#575988" opacity="0.5"/>
        <path id="Path_1599" data-name="Path 1599" d="M150.107,296.957a5.906,5.906,0,0,0-4.477-2.368,17.856,17.856,0,0,1-4.035-.32,10.1,10.1,0,0,0,3.059,1.212A53.43,53.43,0,0,1,150.107,296.957Z" transform="translate(-124.097 -178.105)" opacity="0.1"/>
        <path id="Path_1600" data-name="Path 1600" d="M147.94,300.661a6.646,6.646,0,0,0-2.345-1.074c-.853-.039-1.579-.118-1.579-.118a4.566,4.566,0,0,0,1.311.636C146.026,300.3,147.94,300.661,147.94,300.661Z" transform="translate(-122.885 -181.253)" opacity="0.1"/>
        <path id="Path_1601" data-name="Path 1601" d="M147.132,304.3s-2.246.178-2.266.789" transform="translate(-122.413 -184.176)" opacity="0.1"/>
        <path id="Path_1602" data-name="Path 1602" d="M95.555,212.847a8.91,8.91,0,0,1-2.266-2.921,2.041,2.041,0,0,0-.872-1.287s-1.295.517-.142,2.1A6.39,6.39,0,0,0,95.555,212.847Z" transform="translate(-49.885 -126.278)" opacity="0.1"/>
        <path id="Path_1603" data-name="Path 1603" d="M139.837,43.878c.458,1.082.861,1.184.79,2.215a7.9,7.9,0,0,0,1.82,1.433c1.421.845,2.969,2.5,4.737,2.5a9.44,9.44,0,0,0,3.462-.655,6.388,6.388,0,0,1,1.129-3.221S137.753,38.971,139.837,43.878Z" transform="translate(-124.988 -25.518)" opacity="0.1"/>
        <path id="Path_1604" data-name="Path 1604" d="M127.306,22.313a9.474,9.474,0,1,0,9.475-9.474A9.474,9.474,0,0,0,127.306,22.313Z" transform="translate(-114.604 -7.771)" fill="#ffdad3"/>
        <path id="Path_1605" data-name="Path 1605" d="M138.8,65.164l3.044,4.532s14.381,6.861,11.634-1.184a18.078,18.078,0,0,1-1.133-7.942h-.024a7.6,7.6,0,0,0-.288,1.828c-.043,1.24-.075,2.807-3.158,3.324a8.575,8.575,0,0,1-8.353-2.972A14.884,14.884,0,0,1,138.8,65.164Z" transform="translate(-126.716 -36.659)" opacity="0.1"/>
        <path id="Path_1606" data-name="Path 1606" d="M13.736,21.132l1.907,3.7a7.5,7.5,0,0,0,1.773-.371l.166-.2c-.79.3-3.4-4.654-3.4-4.654l-.083.067C13.87,20.54,13.736,21.132,13.736,21.132Z" transform="translate(58.904 -11.868)" opacity="0.1"/>
        <path id="Path_1607" data-name="Path 1607" d="M99.886,194.917c6.143,2.669,27.389.395,27.389.395a2.908,2.908,0,0,1-.107-.695c-.576-.884-1.007-1.413-1.007-1.413l-25.455-.995S100.293,193.342,99.886,194.917Z" transform="translate(-84.799 -116.334)" opacity="0.1"/>
        <path id="Path_1608" data-name="Path 1608" d="M39.038,36.386,41.872,37.6A2.246,2.246,0,0,0,43.9,36.284c.659-1.37,2.984,0,2.984,0s7.106-.537,9.727.79c0,0,4.236-1.792,4.832-1.911s1.492-.6,1.911-.478.951-.79,1.251-.715.418-.6,1.374-.837,1.311.059,2.369-1.015,9.786-5.309,9.786-5.309l3.948-3.221,4.177-3.34s2.625,4.95,3.4,4.65l-7.935,9.549S76,39.457,72.056,41.068s-3.64,2.088-3.64,2.088-11.934,6.087-13.781,5.969-1.5,12.454-.711,14.483,2.025,16.706,2.025,16.706,1.184,3.1-.059,5.25c0,0-.3,4.417,0,5.191,0,0-21.377,2.286-27.444-.418,0,0-.9-9.9,0-11.156s-.837-4.042-.837-4.042l-3.817-8.531-9.309-9.367s-1.429-7.816,4.954-12.826l4.236-3.762a15.682,15.682,0,0,1,3.063-2.179c.695-.13.438,0,.438,0a8.547,8.547,0,0,0,8.432,3.075c3.071-.517,3.1-2.084,3.158-3.32A7.738,7.738,0,0,1,39.038,36.386Z" transform="translate(-13.414 -12.255)" fill="#67647e"/>
        <path id="Path_1609" data-name="Path 1609" d="M132.226,142.489s13.13.537,15.751,4.662a12.929,12.929,0,0,0-6.443-1.137C138.5,146.492,132.226,142.489,132.226,142.489Z" transform="translate(-118.268 -86.241)" opacity="0.1"/>
        <path id="Path_1610" data-name="Path 1610" d="M144.235,174.333s-6.206.418-7.52-.9-1.319-2.088-1.319-2.088Z" transform="translate(-115.777 -103.708)" opacity="0.1"/>
        <path id="Path_1611" data-name="Path 1611" d="M171.29,110.439s5.254,6.206-1.133,8.89Z" transform="translate(-158.588 -66.843)" opacity="0.1"/>
        <path id="Path_1612" data-name="Path 1612" d="M99.422,80.069s-1.911,3.9-2.866,4.153Z" transform="translate(-55.632 -48.461)" opacity="0.1"/>
        <path id="Path_1613" data-name="Path 1613" d="M85.905,75.829a70.657,70.657,0,0,1-5.669,4.713S85.191,75.829,85.905,75.829Z" transform="translate(-35.672 -45.895)" opacity="0.1"/>
        <path id="Path_1614" data-name="Path 1614" d="M121.813,65.409s4.6,6.861,1.611,11.053C123.424,76.446,125.094,71.492,121.813,65.409Z" transform="translate(-90.612 -39.588)" opacity="0.1"/>
        <path id="Path_1615" data-name="Path 1615" d="M120.092,191.2l1.405,1.322.2.182,1.626,1.54c.114.087.229.174.347.253,6.62,4.737,7.947-2.463,7.947-2.463s2.921,1.911,3.34.359-6.8-3.758-7.9-3.64a1.414,1.414,0,0,1-.288,0,4.515,4.515,0,0,1-1.484-.525l-.32-.17a12.628,12.628,0,0,1-1.07-.675Z" transform="translate(-100.473 -113.41)" fill="#ffdad3"/>
        <path id="Path_1616" data-name="Path 1616" d="M134.676,22.306a9.474,9.474,0,0,0,4.619,8.156,5.381,5.381,0,0,0,.347-.691c.339-.79.549-1.642.892-2.436a7.5,7.5,0,0,1,1.579-2.321,1.007,1.007,0,0,1,.422-.292,1.137,1.137,0,0,1,.868.241,3.991,3.991,0,0,0,1.322.58,1.405,1.405,0,0,0,1.326-.395,1.985,1.985,0,0,0,.213-1.654,20.6,20.6,0,0,1-.624-3.707,3.628,3.628,0,0,1,1.579-3.229c.963-.549,2.159-.395,3.229-.7a3.519,3.519,0,0,0,.486-.166,9.474,9.474,0,0,0-16.261,6.616Z" transform="translate(-122.195 -7.764)" opacity="0.1"/>
        <path id="Path_1617" data-name="Path 1617" d="M153.355,8.475c.17.091.359.257.308.446a.45.45,0,0,1-.174.221,4.141,4.141,0,0,1-1.5.77c-1.07.292-2.27.154-3.233.7a3.658,3.658,0,0,0-1.579,3.229,20.845,20.845,0,0,0,.62,3.7,1.991,1.991,0,0,1-.209,1.658,1.417,1.417,0,0,1-1.326.395,3.948,3.948,0,0,1-1.322-.576,1.149,1.149,0,0,0-.872-.245,1.074,1.074,0,0,0-.422.292,7.5,7.5,0,0,0-1.579,2.325c-.347.79-.553,1.638-.892,2.436a3.947,3.947,0,0,1-1.579,1.974,1.991,1.991,0,0,1-2.392-.253c-.584-.647-.537-1.536-.813-2.313-.474-1.354-1.8-2.2-2.625-3.371a10.6,10.6,0,0,1-1.437-4.555,3.742,3.742,0,0,1-.024-1.524,5.471,5.471,0,0,1,.418-.963c.924-1.911.9-4.315,2.369-5.838a7.113,7.113,0,0,1,4.362-1.69,11.242,11.242,0,0,0,4.591-1.141,4.994,4.994,0,0,1,1.243-.687,1.019,1.019,0,0,1,1.224.458.814.814,0,0,0,.162.332.525.525,0,0,0,.47.028l2.1-.564L149,4.781a5.258,5.258,0,0,0,2.23-.395c.04.6-.636.987-.845,1.547a1.433,1.433,0,0,0,.395,1.453C151.543,8.152,152.494,8.006,153.355,8.475Z" transform="translate(-123.965 -2.065)" fill="#585268"/>
        <path id="Path_1618" data-name="Path 1618" d="M84.566,372.444l.087.951h.036c3.423,1.911,10.5-3.419,10.5-3.419l-.738-.738a1.287,1.287,0,0,0-.324,1l-1.445.079-1.729,1.867s-4.678.541-5.945.241Z" transform="translate(-46.666 -223.481)" opacity="0.1"/>
        <path id="Path_1619" data-name="Path 1619" d="M52.843,377.619c2.227.5,10.023.462,10.023.462l4.374.691s7.5.718,8.334-1.611-.655-2.183-.655-2.183h-.059l-3.123-.253a35.726,35.726,0,0,1-5.412-2.586,31.437,31.437,0,0,1-3.241-2.905s-1.3-.253-1.279,1.255l-1.445.079L58.63,372.44s-4.678.541-5.945.237h-.442l.2,2.309-.055.067C52.089,375.416,50.853,377.177,52.843,377.619Z" transform="translate(-14.342 -223.468)" fill="#67647e"/>
        <ellipse id="Ellipse_32" data-name="Ellipse 32" cx="0.217" cy="0.217" rx="0.217" ry="0.217" transform="translate(46.357 148.146)" fill="#575988"/>
        <ellipse id="Ellipse_33" data-name="Ellipse 33" cx="0.217" cy="0.217" rx="0.217" ry="0.217" transform="translate(51.966 150.578)" fill="#575988"/>
        <ellipse id="Ellipse_34" data-name="Ellipse 34" cx="0.217" cy="0.217" rx="0.217" ry="0.217" transform="translate(54.856 151.454)" fill="#575988"/>
        <ellipse id="Ellipse_35" data-name="Ellipse 35" cx="0.217" cy="0.217" rx="0.217" ry="0.217" transform="translate(50.494 150.112)" fill="#575988"/>
        <ellipse id="Ellipse_36" data-name="Ellipse 36" cx="0.217" cy="0.217" rx="0.217" ry="0.217" transform="translate(53.415 151.016)" fill="#575988"/>
        <ellipse id="Ellipse_37" data-name="Ellipse 37" cx="0.217" cy="0.217" rx="0.217" ry="0.217" transform="translate(49.005 149.421)" fill="#575988"/>
        <ellipse id="Ellipse_38" data-name="Ellipse 38" cx="0.217" cy="0.217" rx="0.217" ry="0.217" transform="translate(47.533 148.782)" fill="#575988"/>
        <path id="Path_1620" data-name="Path 1620" d="M52.843,386.447c2.227.5,10.023.462,10.023.462l4.374.691s7.5.718,8.334-1.611-.655-2.183-.655-2.183h-.059a4.016,4.016,0,0,1-3.32,1.358l-5.393.217-5.586-.395s-5.235-.154-6.087-.336a12.475,12.475,0,0,1-2.084-.766C52.089,384.244,50.853,386,52.843,386.447Z" transform="translate(-14.342 -232.296)" fill="#dce6f2"/>
        <path id="Path_1621" data-name="Path 1621" d="M87.392,388.966a3.233,3.233,0,0,0,.884-.111l-.063-.229a4.382,4.382,0,0,1-2.219-.1c-.264-.071-.525-.146-.79-.225a12.487,12.487,0,0,0-1.457-.367,12.069,12.069,0,0,0-2.4-.071h-.17a36.97,36.97,0,0,1-7.161-.32,2.68,2.68,0,0,1-1.532-.616l-.17.17a2.9,2.9,0,0,0,1.662.683,37.148,37.148,0,0,0,7.209.32h.174a11.881,11.881,0,0,1,2.369.071,11.756,11.756,0,0,1,1.425.359c.264.079.529.158.79.225A6,6,0,0,0,87.392,388.966Z" transform="translate(-34.917 -234.187)" fill="#575988" opacity="0.5"/>
        <path id="Path_1622" data-name="Path 1622" d="M145.386,191.19l1.405,1.322,3.49-4.469q-.551-.311-1.07-.675Z" transform="translate(-125.767 -113.404)" opacity="0.1"/>
        <path id="Path_1623" data-name="Path 1623" d="M148.146,104.3l-2.763,3.817v4a16.738,16.738,0,0,0,0,8.471l-.134,3.7s1.33,3.4.853,4.236c0,0,.237,2.507,3.458,4.236s6.877,5.827,6.877,5.827a4.678,4.678,0,0,0,5.073,2.029l3.521,1.492,4.054-5.191-5.487-2.984s-1.911-2.562-3.044-2.444l-4.654-5.432s-.118-1.729-1.311-1.729c0,0,2.207-1.788,1.433-2.862s-.122-5.85-.122-5.85Z" transform="translate(-144.349 -63.126)" fill="#67647e"/>
        <path id="Path_1624" data-name="Path 1624" d="M191.974,148.175s-6.265-.118-7.039,1.492S190.083,147.279,191.974,148.175Z" transform="translate(-183.046 -89.603)" opacity="0.1"/>
        <path id="Path_1625" data-name="Path 1625" d="M140.8,193.671a1.639,1.639,0,0,0,.028.312,2.108,2.108,0,0,0,1.974,1.792h.111a2.108,2.108,0,0,0,2.108-2.108h0a2.052,2.052,0,0,0-.118-.683,3.615,3.615,0,0,0,1.022-2.961,4.516,4.516,0,0,1-1.484-.525,9.822,9.822,0,0,1-1.038,2.12,2.214,2.214,0,0,0-.49-.059,2.112,2.112,0,0,0-2.112,2.112Z" transform="translate(-119.61 -114.694)" opacity="0.1"/>
        <path id="Path_1626" data-name="Path 1626" d="M142.624,188.3s1.413.32,1.413.576.32,2.586-1.232,3.553-1.394-1.334-1.394-1.334S142.746,189.049,142.624,188.3Z" transform="translate(-117.979 -113.967)" fill="#575988"/>
        <ellipse id="Ellipse_39" data-name="Ellipse 39" cx="2.108" cy="2.108" rx="2.108" ry="2.108" transform="translate(20.961 76.87)" fill="#e4aab4"/>
        <ellipse id="Ellipse_40" data-name="Ellipse 40" cx="1.808" cy="1.808" rx="1.808" ry="1.808" transform="translate(21.261 77.17)" fill="#dce6f2"/>
        <path id="Path_1627" data-name="Path 1627" d="M138.345,202.139a10.444,10.444,0,0,1-10.181,1.35v1.792s3.817,2.625,7.276,1.034S138.345,202.139,138.345,202.139Z" transform="translate(-107.065 -122.344)" opacity="0.1"/>
        <path id="Path_1628" data-name="Path 1628" d="M138.345,200.929a10.433,10.433,0,0,1-10.181,1.35v1.792s3.817,2.625,7.276,1.034S138.345,200.929,138.345,200.929Z" transform="translate(-107.065 -121.612)" opacity="0.1"/>
        <path id="Path_1629" data-name="Path 1629" d="M138.345,200.929a10.433,10.433,0,0,1-10.181,1.35v1.792s3.817,2.625,7.276,1.034S138.345,200.929,138.345,200.929Z" transform="translate(-107.065 -121.612)" fill="#444053"/>
        <path id="Path_1630" data-name="Path 1630" d="M138.648,200.929a10.439,10.439,0,0,1-10.185,1.35v1.792s3.817,2.625,7.28,1.034S138.648,200.929,138.648,200.929Z" transform="translate(-107.486 -121.612)" opacity="0.05"/>
        <path id="Path_1631" data-name="Path 1631" d="M99.952,369.239s-5.969,1.1-6.841,1.334.237.655.237.655S98.8,370.253,99.952,369.239Z" transform="translate(-54.669 -223.481)" opacity="0.1"/>
        <path id="Path_1632" data-name="Path 1632" d="M97.337,356.6c-.1,0-4.058-1.113-4.911-3.02" transform="translate(-51.916 -214.003)" opacity="0.1"/>
        <path id="Path_1633" data-name="Path 1633" d="M109.923,303.4s-1.6,2.108-2.637,2.049S108.984,303.316,109.923,303.4Z" transform="translate(-70.278 -183.628)" opacity="0.1"/>
        <path id="Path_1634" data-name="Path 1634" d="M110.976,312.3s-.675,1.488-1.67,1.011" transform="translate(-72.219 -189.018)" opacity="0.1"/>
        <path id="Path_1635" data-name="Path 1635" d="M123.239,229.273l-4.232,11.16s-.6-7.181.663-9.328A3.723,3.723,0,0,1,123.239,229.273Z" transform="translate(-88.256 -138.757)" opacity="0.05"/>
        <g id="Group_424" data-name="Group 424" transform="translate(9.505 1.748)" opacity="0.1">
          <path id="Path_1636" data-name="Path 1636" d="M143.4,4.772l.036-.162.679-.182-.075.332A5.766,5.766,0,0,1,143.4,4.772Z" transform="translate(-128.316 -4.429)"/>
          <path id="Path_1637" data-name="Path 1637" d="M138.837,8.524l-.071-.063a1.429,1.429,0,0,1-.395-1.453,1.914,1.914,0,0,1,.339-.541,5.58,5.58,0,0,0,.979-.288c.039.6-.632.983-.841,1.543A1.184,1.184,0,0,0,138.837,8.524Z" transform="translate(-121.89 -5.488)"/>
          <path id="Path_1638" data-name="Path 1638" d="M134.4,32.932a3.948,3.948,0,0,0,1.6-1.974c.336-.79.545-1.642.888-2.432a7.5,7.5,0,0,1,1.579-2.325,1.035,1.035,0,0,1,.422-.292,1.153,1.153,0,0,1,.868.241,3.991,3.991,0,0,0,1.323.58,1.413,1.413,0,0,0,1.326-.395,1.994,1.994,0,0,0,.213-1.658,20.561,20.561,0,0,1-.624-3.7,3.627,3.627,0,0,1,1.579-3.229c.963-.549,2.159-.395,3.229-.7a4.157,4.157,0,0,0,1.5-.77.713.713,0,0,0,.079-.075,1.972,1.972,0,0,1,.261.122c.174.091.359.257.312.446a.482.482,0,0,1-.178.221,4.11,4.11,0,0,1-1.5.77c-1.07.292-2.266.154-3.229.7a3.658,3.658,0,0,0-1.579,3.229,20.5,20.5,0,0,0,.624,3.7,1.992,1.992,0,0,1-.213,1.658,1.413,1.413,0,0,1-1.326.395,3.948,3.948,0,0,1-1.322-.576,1.141,1.141,0,0,0-.868-.245,1.046,1.046,0,0,0-.422.292,7.583,7.583,0,0,0-1.579,2.325c-.347.79-.553,1.638-.892,2.436a3.948,3.948,0,0,1-1.579,1.974,1.952,1.952,0,0,1-2.369-.253,1.855,1.855,0,0,1-.355-.6A2.037,2.037,0,0,0,134.4,32.932Z" transform="translate(-128.737 -11.552)"/>
          <path id="Path_1639" data-name="Path 1639" d="M179.956,46.8c-.6-.754-1.382-1.4-1.942-2.187-.111-.158-.213-.324-.308-.489A19.388,19.388,0,0,1,179.956,46.8Z" transform="translate(-177.706 -28.451)"/>
        </g>
      </g>
    </g>
  </g>
</svg>
